<svg viewBox="0 0 240 248" xmlns="http://www.w3.org/2000/svg" role="img" aria-label="Le noble sentier octuple">
  <title>Le noble sentier octuple</title>
  <circle cx="120" cy="112" r="100" fill="#F6F1E7" stroke="#3E2C22" stroke-width="3"/>
  <circle cx="120" cy="112" r="93" fill="none" stroke="#B8862E" stroke-width="1.5" opacity="0.7"/>
  <g transform="translate(120,100)">
    <circle cx="0" cy="0" r="10" fill="none" stroke="#3E2C22" stroke-width="4"/><line x1="0" y1="0" x2="40.0" y2="0.0" stroke="#B8862E" stroke-width="4" stroke-linecap="round"/><line x1="0" y1="0" x2="28.3" y2="28.3" stroke="#B8862E" stroke-width="4" stroke-linecap="round"/><line x1="0" y1="0" x2="0.0" y2="40.0" stroke="#B8862E" stroke-width="4" stroke-linecap="round"/><line x1="0" y1="0" x2="-28.3" y2="28.3" stroke="#B8862E" stroke-width="4" stroke-linecap="round"/><line x1="0" y1="0" x2="-40.0" y2="0.0" stroke="#B8862E" stroke-width="4" stroke-linecap="round"/><line x1="0" y1="0" x2="-28.3" y2="-28.3" stroke="#B8862E" stroke-width="4" stroke-linecap="round"/><line x1="0" y1="0" x2="-0.0" y2="-40.0" stroke="#B8862E" stroke-width="4" stroke-linecap="round"/><line x1="0" y1="0" x2="28.3" y2="-28.3" stroke="#B8862E" stroke-width="4" stroke-linecap="round"/>
  </g>
  <rect x="55.00" y="222" width="26.00" height="12" fill="#1E3A5F" stroke="#FFFFFF" stroke-width="0.4"/><rect x="81.00" y="222" width="26.00" height="12" fill="#E8B93B" stroke="#FFFFFF" stroke-width="0.4"/><rect x="107.00" y="222" width="26.00" height="12" fill="#B33A3A" stroke="#FFFFFF" stroke-width="0.4"/><rect x="133.00" y="222" width="26.00" height="12" fill="#F6F1E7" stroke="#FFFFFF" stroke-width="0.4"/><rect x="159.00" y="222" width="26.00" height="12" fill="#D98A3D" stroke="#FFFFFF" stroke-width="0.4"/>
</svg>